<svg width="1383" height="173" viewBox="0 0 1383 173" fill="none" xmlns="http://www.w3.org/2000/svg"><path d="M315.306 173h-36.739V70.223l-55.109 55.109-55.109-55.109V173H131.61V0h19.532l72.781 72.78L295.774 0h19.532v173z" fill="#fff"/><path d="M94.871 77.712H0l94.871 94.87v-94.87z" fill="#F23A1D"/><path d="M531.529 172.491H363.675V0h160.762v35.54H400.556v28.433h81.326v34.593h-81.326v39.332h130.973v34.593zm226.787.001h-41.07l-45.319-70.229h-59.953v70.229h-36.35V.928H690.81c16.995 0 30.213 4.242 40.598 12.254 11.33 8.955 16.995 21.682 16.995 38.178 0 11.312-3.305 21.21-9.441 30.165-6.61 8.955-15.107 15.082-25.965 18.853l45.319 72.114zM711.109 51.36c0-4.713-1.416-8.484-4.721-11.312-3.304-2.357-8.969-3.77-16.05-3.77h-78.364v31.578h78.364c7.553 0 12.746-1.413 16.05-4.241 3.305-4.242 4.721-8.013 4.721-12.255zm266.648 121.132h-43.018L870.921 86.71l-26 22.152v63.63h-36.873V.928h36.873v64.1L921.03.928h51.054l-74.69 63.158 80.363 108.406zm197.603-.001h-154.87V0h36.83v137.898h118.04v34.593zm207.59 0h-167.86V0h160.76v35.54H1251.5v28.433h81.33v34.593h-81.33v39.332h131.45v34.593z" fill="#fff"/></svg>